<svg version="1.1" id="Layer_1" xmlns="http://www.w3.org/2000/svg" xmlns:xlink="http://www.w3.org/1999/xlink" x="0px" y="0px"
	 width="100%" viewBox="0 0 512 512" enable-background="new 0 0 512 512" xml:space="preserve">
<path fill="#000000" opacity="1.000000" stroke="none" 
	d="
M289.000000,0.999996 
	C363.593719,1.000000 438.187408,1.000000 513.000000,1.000000 
	C513.000000,75.354088 513.000000,149.708389 512.588562,224.636703 
	C511.462463,222.267914 510.481354,219.361374 510.075012,216.376602 
	C506.588440,190.767197 498.480042,166.601532 487.106445,143.514618 
	C479.111816,127.286499 469.630585,111.941490 457.933258,97.643280 
	C445.874725,85.188530 433.960754,73.039085 421.894012,60.588470 
	C417.212616,56.752014 412.894165,52.897114 408.109802,49.750637 
	C399.232147,43.912163 390.082458,38.487347 380.863617,32.598476 
	C369.450378,27.260313 358.219574,22.213964 346.661316,16.997902 
	C344.421082,15.980682 342.579468,14.869349 340.583313,14.330862 
	C331.410278,11.856326 322.194122,9.541793 312.644653,6.985368 
	C305.645874,5.533334 298.982300,4.330152 292.358185,2.939278 
	C291.156036,2.686867 290.115265,1.666067 289.000000,0.999996 
z"/>
<path fill="#000000" opacity="1.000000" stroke="none" 
	d="
M225.000000,513.000000 
	C150.406296,513.000000 75.812599,513.000000 1.000000,513.000000 
	C1.000000,438.645905 1.000000,364.291626 1.341379,289.133301 
	C2.092854,288.839264 2.781566,289.304993 2.870667,289.865997 
	C3.963166,296.744781 4.280001,303.829315 6.136173,310.487396 
	C10.197414,325.055084 15.028339,339.408203 19.701233,354.098938 
	C24.622356,364.227600 29.387135,374.106323 34.172844,384.333893 
	C34.822819,385.614105 35.446739,386.548920 36.081741,387.476166 
	C41.705975,395.688782 47.332146,403.900085 53.092453,412.423462 
	C59.138653,419.528259 65.050163,426.321320 71.090836,433.419586 
	C76.119629,438.495117 81.019264,443.265472 86.069931,448.345581 
	C91.466263,452.808502 96.711563,456.961670 102.097412,461.428406 
	C107.827980,465.498413 113.417999,469.254852 119.206573,473.292542 
	C125.585861,477.087616 131.766586,480.601501 138.116638,484.425110 
	C145.855728,488.100922 153.425491,491.467072 161.332001,495.005463 
	C168.451141,497.462738 175.233536,499.747803 182.245789,502.332764 
	C189.983002,504.366913 197.490372,506.101105 205.357727,508.028320 
	C211.067017,509.147827 216.432556,509.993591 221.752853,511.064087 
	C222.917908,511.298523 223.921860,512.333618 225.000000,513.000000 
z"/>
<path fill="#000000" opacity="1.000000" stroke="none" 
	d="
M513.000000,289.000000 
	C513.000000,363.593719 513.000000,438.187408 513.000000,513.000000 
	C438.645905,513.000000 364.291626,513.000000 289.334808,512.591492 
	C289.878906,511.789551 290.998169,511.253693 292.176849,511.027069 
	C297.461090,510.011139 302.762268,509.083191 308.469666,508.076599 
	C316.919556,505.964020 324.957123,503.898285 333.375671,501.882996 
	C342.850220,498.328918 351.943756,494.724457 361.408783,491.058899 
	C371.532593,485.705353 381.284882,480.412933 391.394043,475.060303 
	C401.203369,468.349854 410.655792,461.699554 420.407288,454.904419 
	C428.150208,447.545807 435.594116,440.332001 443.340210,432.966553 
	C446.970551,429.167847 450.606506,425.752563 453.563507,421.825989 
	C459.927979,413.374695 465.943146,404.660309 472.405365,395.895935 
	C478.854248,384.352356 485.446655,373.181732 491.047791,361.534424 
	C501.706543,339.370026 508.093536,315.886261 511.081512,291.468903 
	C511.190155,290.580963 512.336975,289.820099 513.000000,289.000000 
z"/>
<path fill="#000000" opacity="1.000000" stroke="none" 
	d="
M1.000000,225.000000 
	C1.000000,150.406296 1.000000,75.812576 1.000000,1.000000 
	C75.354088,1.000000 149.708389,1.000000 224.690353,1.405909 
	C223.983627,2.208071 222.667252,2.686314 221.311218,2.984028 
	C218.204208,3.666172 215.077866,4.260189 211.529984,4.937776 
	C200.066269,7.711289 189.031952,10.437018 177.615448,13.109440 
	C172.121063,15.021586 167.008835,16.987040 161.526215,18.988197 
	C156.439041,21.075369 151.722275,23.126839 146.656097,25.225765 
	C141.190323,28.142237 136.073975,31.011255 130.597290,33.938736 
	C125.479477,36.956139 120.722000,39.915081 115.646484,43.024258 
	C109.514862,47.432617 103.701279,51.690742 97.580231,56.089169 
	C92.480255,60.468056 87.687737,64.706642 82.591766,69.080605 
	C77.490784,74.126450 72.693275,79.036926 67.587677,84.084808 
	C64.799606,87.034714 62.143593,89.713295 59.879154,92.689774 
	C56.086040,97.675636 52.542622,102.851448 48.582512,108.087181 
	C43.235710,116.289764 38.200508,124.352493 32.925030,132.650711 
	C28.088078,142.573730 23.491405,152.261276 18.569149,162.132797 
	C17.248180,165.021149 16.151003,167.692963 15.274006,170.435196 
	C9.764535,187.662415 4.366774,204.916901 2.907269,223.105286 
	C2.852844,223.783493 1.661517,224.370499 1.000000,225.000000 
z"/>
<path fill="#2B59AB" opacity="1.000000" stroke="none" 
	d="
M513.000000,288.531342 
	C512.336975,289.820099 511.190155,290.580963 511.081512,291.468903 
	C508.093536,315.886261 501.706543,339.370026 491.047791,361.534424 
	C485.446655,373.181732 478.854248,384.352356 472.169617,395.549622 
	C471.419830,393.394379 471.033203,391.428253 471.027771,389.461090 
	C470.979675,372.135193 471.094849,354.808044 470.904083,337.484070 
	C470.872711,334.636749 469.585327,331.803223 468.927887,328.570312 
	C471.977051,315.798584 476.111908,303.562073 477.685028,291.004608 
	C479.588684,275.808960 480.093384,260.324493 479.749451,244.997620 
	C479.486267,233.268082 477.555237,221.474960 475.317596,209.913040 
	C471.374359,189.538467 463.806641,170.356995 454.472839,151.846909 
	C455.283081,149.549271 456.210144,147.402573 456.220978,145.251266 
	C456.286011,132.351547 456.018738,119.449440 456.159119,106.551361 
	C456.190399,103.677139 457.406982,100.815834 458.077820,97.948578 
	C469.630585,111.941490 479.111816,127.286499 487.106445,143.514618 
	C498.480042,166.601532 506.588440,190.767197 510.075012,216.376602 
	C510.481354,219.361374 511.462463,222.267914 512.588562,225.105362 
	C513.000000,246.020889 513.000000,267.041779 513.000000,288.531342 
z"/>
<path fill="#E323C2" opacity="1.000000" stroke="none" 
	d="
M1.000000,225.468658 
	C1.661517,224.370499 2.852844,223.783493 2.907269,223.105286 
	C4.366774,204.916901 9.764535,187.662415 15.274006,170.435196 
	C16.151003,167.692963 17.248180,165.021149 18.814365,162.432526 
	C19.923319,165.613586 20.925430,168.678131 20.930723,171.744370 
	C21.025543,226.666016 21.042816,281.587952 20.935974,336.509552 
	C20.924730,342.290222 20.029823,348.069214 19.544888,353.848969 
	C15.028339,339.408203 10.197414,325.055084 6.136173,310.487396 
	C4.280001,303.829315 3.963166,296.744781 2.870667,289.865997 
	C2.781566,289.304993 2.092854,288.839264 1.341379,288.664612 
	C1.000000,267.979095 1.000000,246.958206 1.000000,225.468658 
z"/>
<path fill="#6049B2" opacity="1.000000" stroke="none" 
	d="
M288.550018,0.999996 
	C290.115265,1.666067 291.156036,2.686867 292.358185,2.939278 
	C298.982300,4.330152 305.645874,5.533334 312.609436,7.393775 
	C312.602631,18.692459 312.282349,29.398256 311.551147,40.060581 
	C305.112366,38.832722 299.097107,37.578667 293.052765,36.485493 
	C288.015747,35.574509 282.944641,34.852276 278.205780,33.810036 
	C279.015015,31.713842 279.901245,29.860579 279.932190,27.993143 
	C280.081238,18.997524 279.999695,9.998084 280.000000,1.000000 
	C282.700012,1.000000 285.400024,1.000000 288.550018,0.999996 
z"/>
<path fill="#6049B2" opacity="1.000000" stroke="none" 
	d="
M308.057343,508.123474 
	C302.762268,509.083191 297.461090,510.011139 292.176849,511.027069 
	C290.998169,511.253693 289.878906,511.789551 288.866150,512.591492 
	C285.969391,513.000000 282.938812,513.000000 279.454529,512.531372 
	C278.999939,501.096313 278.999023,490.129974 279.437500,479.096741 
	C288.917603,477.741699 297.958313,476.453522 306.999359,475.623627 
	C307.352264,486.762451 307.704803,497.442963 308.057343,508.123474 
z"/>
<path fill="#6A46B4" opacity="1.000000" stroke="none" 
	d="
M278.998077,479.163574 
	C278.999023,490.129974 278.999939,501.096313 279.000427,512.531372 
	C270.645752,513.000000 262.291534,513.000000 253.469025,512.531372 
	C252.999435,501.431061 252.998123,490.799408 253.391281,480.102509 
	C259.444061,480.025085 265.104401,480.098785 270.759796,479.963867 
	C273.510681,479.898224 276.252289,479.442657 278.998077,479.163574 
z"/>
<path fill="#6A46B4" opacity="1.000000" stroke="none" 
	d="
M279.531372,1.000000 
	C279.999695,9.998084 280.081238,18.997524 279.932190,27.993143 
	C279.901245,29.860579 279.015015,31.713842 277.744965,33.790024 
	C269.990265,33.711563 263.013580,33.416714 255.998108,32.694656 
	C255.639557,21.844961 255.319778,11.422481 255.000000,1.000000 
	C263.020905,1.000000 271.041809,1.000000 279.531372,1.000000 
z"/>
<path fill="#7F40B6" opacity="1.000000" stroke="none" 
	d="
M225.399994,513.000000 
	C223.921860,512.333618 222.917908,511.298523 221.752853,511.064087 
	C216.432556,509.993591 211.067017,509.147827 205.358521,507.570282 
	C204.998505,496.001190 204.997711,485.083130 205.377258,474.237610 
	C208.106522,474.874420 210.441544,475.506989 212.807205,475.989197 
	C218.195419,477.087433 223.598679,478.111847 228.996979,479.624512 
	C228.998749,491.055176 228.999374,502.027588 229.000000,513.000000 
	C227.933334,513.000000 226.866653,513.000000 225.399994,513.000000 
z"/>
<path fill="#7643B5" opacity="1.000000" stroke="none" 
	d="
M229.468628,513.000000 
	C228.999374,502.027588 228.998749,491.055176 229.438538,479.556152 
	C237.584900,479.408936 245.290863,479.788361 252.996811,480.167786 
	C252.998123,490.799408 252.999435,501.431061 253.000366,512.531372 
	C245.312424,513.000000 237.624832,513.000000 229.468628,513.000000 
z"/>
<path fill="#7643B5" opacity="1.000000" stroke="none" 
	d="
M254.531372,1.000000 
	C255.319778,11.422481 255.639557,21.844961 255.732559,33.031883 
	C247.668808,34.141403 239.831848,34.486481 231.995743,34.373459 
	C231.997742,22.943575 231.998871,11.971787 232.000000,1.000000 
	C239.354248,1.000000 246.708496,1.000000 254.531372,1.000000 
z"/>
<path fill="#7F40B6" opacity="1.000000" stroke="none" 
	d="
M231.562500,1.000000 
	C231.998871,11.971787 231.997742,22.943575 231.574265,34.438953 
	C224.765488,35.918270 218.379059,36.873997 211.993607,37.371742 
	C211.982849,26.239168 211.971115,15.564580 211.959381,4.889992 
	C215.077866,4.260189 218.204208,3.666172 221.311218,2.984028 
	C222.667252,2.686314 223.983627,2.208071 225.159012,1.405909 
	C227.041672,1.000000 229.083328,1.000000 231.562500,1.000000 
z"/>
<path fill="#3457AC" opacity="1.000000" stroke="none" 
	d="
M457.933258,97.643280 
	C457.406982,100.815834 456.190399,103.677139 456.159119,106.551361 
	C456.018738,119.449440 456.286011,132.351547 456.220978,145.251266 
	C456.210144,147.402573 455.283081,149.549271 454.309387,151.530548 
	C444.487030,134.224442 432.874359,118.706696 419.970398,103.644562 
	C419.985901,91.566635 419.876282,79.962677 420.093506,68.364853 
	C420.140381,65.861786 421.364807,63.380791 422.046753,60.889637 
	C433.960754,73.039085 445.874725,85.188530 457.933258,97.643280 
z"/>
<path fill="#3F54AD" opacity="1.000000" stroke="none" 
	d="
M421.894043,60.588463 
	C421.364807,63.380791 420.140381,65.861786 420.093506,68.364853 
	C419.876282,79.962677 419.985901,91.566635 419.669434,103.492294 
	C414.422272,99.155556 409.685150,94.256287 404.499786,89.889221 
	C396.347717,83.023567 387.893738,76.516396 379.649414,69.340355 
	C379.820831,60.749599 379.814606,52.673241 380.041229,44.603424 
	C380.151062,40.692719 380.697388,36.794273 381.046051,32.890282 
	C390.082458,38.487347 399.232147,43.912163 408.109802,49.750637 
	C412.894165,52.897114 417.212616,56.752014 421.894043,60.588463 
z"/>
<path fill="#4950AF" opacity="1.000000" stroke="none" 
	d="
M380.863617,32.598473 
	C380.697388,36.794273 380.151062,40.692719 380.041229,44.603424 
	C379.814606,52.673241 379.820831,60.749599 379.271423,69.343582 
	C367.871765,63.853382 356.931946,57.842854 345.993103,51.374176 
	C346.325623,39.666557 346.657196,28.417082 346.988770,17.167612 
	C358.219574,22.213964 369.450378,27.260313 380.863617,32.598473 
z"/>
<path fill="#584CB1" opacity="1.000000" stroke="none" 
	d="
M346.661316,16.997898 
	C346.657196,28.417082 346.325623,39.666557 345.636780,51.304169 
	C334.173706,47.829556 323.067871,43.966805 311.962067,40.104057 
	C312.282349,29.398256 312.602631,18.692459 312.958191,7.578254 
	C322.194122,9.541793 331.410278,11.856326 340.583313,14.330862 
	C342.579468,14.869349 344.421082,15.980682 346.661316,16.997898 
z"/>
<path fill="#DB25C1" opacity="1.000000" stroke="none" 
	d="
M19.701233,354.098938 
	C20.029823,348.069214 20.924730,342.290222 20.935974,336.509552 
	C21.042816,281.587952 21.025543,226.666016 20.930723,171.744370 
	C20.925430,168.678131 19.923319,165.613586 19.139952,162.248535 
	C23.491405,152.261276 28.088078,142.573730 33.252857,132.993073 
	C34.214153,135.343552 34.941395,137.585968 34.949150,139.830902 
	C35.031944,163.801575 34.955410,187.772873 35.080517,211.743179 
	C35.091423,213.833038 36.223045,215.917038 36.902245,218.419800 
	C35.979385,227.220932 34.484856,235.583008 34.100563,243.995804 
	C33.260181,262.393188 34.198280,280.747253 36.882416,299.306946 
	C36.428379,301.773865 36.032013,303.898346 36.028088,306.023529 
	C35.983910,329.935760 36.045647,353.848328 35.919743,377.759979 
	C35.908802,379.838043 34.767933,381.910156 34.151917,383.985016 
	C29.387135,374.106323 24.622356,364.227600 19.701233,354.098938 
z"/>
<path fill="#D128C1" opacity="1.000000" stroke="none" 
	d="
M34.172844,384.333893 
	C34.767933,381.910156 35.908802,379.838043 35.919743,377.759979 
	C36.045647,353.848328 35.983910,329.935760 36.028088,306.023529 
	C36.032013,303.898346 36.428379,301.773865 37.222019,299.514893 
	C38.078537,300.983154 38.307690,302.595551 38.639847,304.186462 
	C42.166008,321.075409 48.080990,337.161713 54.878273,353.286896 
	C54.476940,355.802826 54.039722,357.926514 54.031136,360.051941 
	C53.970863,374.970306 54.045563,389.889374 53.952198,404.807373 
	C53.936947,407.244141 53.304783,409.677063 52.957756,412.111755 
	C47.332146,403.900085 41.705975,395.688782 36.081741,387.476166 
	C35.446739,386.548920 34.822819,385.614105 34.172844,384.333893 
z"/>
<path fill="#CA2AC0" opacity="1.000000" stroke="none" 
	d="
M53.092449,412.423462 
	C53.304783,409.677063 53.936947,407.244141 53.952198,404.807373 
	C54.045563,389.889374 53.970863,374.970306 54.031136,360.051941 
	C54.039722,357.926514 54.476940,355.802826 55.200996,353.463074 
	C61.496761,363.486603 67.307304,373.725311 72.878281,384.306458 
	C72.425278,395.708557 72.287201,406.770416 71.964867,417.826935 
	C71.816147,422.928162 71.307259,428.018890 70.961670,433.114380 
	C65.050163,426.321320 59.138653,419.528259 53.092449,412.423462 
z"/>
<path fill="#9E37B9" opacity="1.000000" stroke="none" 
	d="
M160.995255,494.833221 
	C153.425491,491.467072 145.855728,488.100922 138.128693,483.949646 
	C137.978668,470.831543 137.985886,458.498657 138.337036,446.200806 
	C146.827408,450.808411 154.973892,455.380920 162.762207,460.123291 
	C161.936020,462.109894 161.088943,463.921326 161.063324,465.744293 
	C160.927139,475.438995 160.996841,485.136627 160.995255,494.833221 
z"/>
<path fill="#943AB8" opacity="1.000000" stroke="none" 
	d="
M161.332001,495.005463 
	C160.996841,485.136627 160.927139,475.438995 161.063324,465.744293 
	C161.088943,463.921326 161.936020,462.109894 163.127167,460.153870 
	C170.231415,462.731903 176.612503,465.449280 182.995026,468.624817 
	C182.997635,474.515961 183.127258,479.952728 182.964279,485.380737 
	C182.797470,490.935913 182.343948,496.482483 182.015930,502.032837 
	C175.233536,499.747803 168.451141,497.462738 161.332001,495.005463 
z"/>
<path fill="#893DB7" opacity="1.000000" stroke="none" 
	d="
M182.245789,502.332764 
	C182.343948,496.482483 182.797470,490.935913 182.964279,485.380737 
	C183.127258,479.952728 182.997635,474.515961 183.378448,468.566956 
	C190.839264,470.088989 197.918091,472.127045 204.996918,474.165100 
	C204.997711,485.083130 204.998505,496.001190 204.998520,507.377289 
	C197.490372,506.101105 189.983002,504.366913 182.245789,502.332764 
z"/>
<path fill="#C22CBE" opacity="1.000000" stroke="none" 
	d="
M71.090836,433.419586 
	C71.307259,428.018890 71.816147,422.928162 71.964867,417.826935 
	C72.287201,406.770416 72.425278,395.708557 73.183144,384.462067 
	C78.498260,390.482666 83.268944,396.690033 87.999557,403.323364 
	C87.658875,405.368530 87.102844,406.987152 87.098549,408.607208 
	C87.067490,420.317169 87.192215,432.027679 87.136192,443.737366 
	C87.129326,445.172089 86.343651,446.603088 85.918892,448.035797 
	C81.019264,443.265472 76.119629,438.495117 71.090836,433.419586 
z"/>
<path fill="#B82FBD" opacity="1.000000" stroke="none" 
	d="
M86.069931,448.345581 
	C86.343651,446.603088 87.129326,445.172089 87.136192,443.737366 
	C87.192215,432.027679 87.067490,420.317169 87.098549,408.607208 
	C87.102844,406.987152 87.658875,405.368530 88.303955,403.485168 
	C93.779709,408.775330 98.910980,414.329620 103.953552,420.300110 
	C103.576569,431.425354 103.343025,442.136322 102.962494,452.842041 
	C102.864174,455.608063 102.304565,458.357697 101.956863,461.114838 
	C96.711563,456.961670 91.466263,452.808502 86.069931,448.345581 
z"/>
<path fill="#B131BC" opacity="1.000000" stroke="none" 
	d="
M102.097412,461.428406 
	C102.304565,458.357697 102.864174,455.608063 102.962494,452.842041 
	C103.343025,442.136322 103.576569,431.425354 104.262680,420.439880 
	C109.787582,424.736542 114.914650,429.309723 120.032837,434.358826 
	C120.015892,445.633728 120.055756,456.433167 119.955322,467.231232 
	C119.937370,469.160706 119.338608,471.084717 119.008026,473.011292 
	C113.417999,469.254852 107.827980,465.498413 102.097412,461.428406 
z"/>
<path fill="#A834BB" opacity="1.000000" stroke="none" 
	d="
M119.206573,473.292511 
	C119.338608,471.084717 119.937370,469.160706 119.955322,467.231232 
	C120.055756,456.433167 120.015892,445.633728 120.383743,434.418091 
	C126.493393,438.056213 132.243256,442.110962 137.993118,446.165741 
	C137.985886,458.498657 137.978668,470.831543 137.959381,483.639923 
	C131.766586,480.601501 125.585861,477.087616 119.206573,473.292511 
z"/>
<path fill="#3058AC" opacity="1.000000" stroke="none" 
	d="
M468.878479,328.963318 
	C469.585327,331.803223 470.872711,334.636749 470.904083,337.484070 
	C471.094849,354.808044 470.979675,372.135193 471.027771,389.461090 
	C471.033203,391.428253 471.419830,393.394379 471.865479,395.707275 
	C465.943146,404.660309 459.927979,413.374695 453.563507,421.825989 
	C450.606506,425.752563 446.970551,429.167847 443.332062,432.490143 
	C443.014496,417.844666 443.052063,403.523651 442.950287,389.203613 
	C442.935486,387.120209 442.254120,385.041565 441.942169,382.607605 
	C452.983612,365.510468 461.785583,347.667847 468.878479,328.963318 
z"/>
<path fill="#3F54AD" opacity="1.000000" stroke="none" 
	d="
M420.108246,455.049255 
	C410.655792,461.699554 401.203369,468.349854 391.355164,474.632690 
	C390.639587,471.000122 390.006287,467.729858 390.059204,464.470734 
	C390.213898,454.938110 390.642181,445.409943 391.112427,435.576935 
	C400.162292,427.474365 409.063019,419.674896 418.123535,412.269135 
	C418.522064,414.619812 418.953949,416.575439 418.967194,418.533936 
	C419.036713,428.800232 418.944550,439.067810 419.050537,449.333466 
	C419.070221,451.242157 419.739014,453.144165 420.108246,455.049255 
z"/>
<path fill="#3457AC" opacity="1.000000" stroke="none" 
	d="
M420.407288,454.904419 
	C419.739014,453.144165 419.070221,451.242157 419.050537,449.333466 
	C418.944550,439.067810 419.036713,428.800232 418.967194,418.533936 
	C418.953949,416.575439 418.522064,414.619812 418.267242,411.972076 
	C422.453918,406.427032 426.723633,401.628693 430.839813,396.702057 
	C434.606537,392.193695 438.207245,387.546661 441.881165,382.960724 
	C442.254120,385.041565 442.935486,387.120209 442.950287,389.203613 
	C443.052063,403.523651 443.014496,417.844666 443.029907,432.641785 
	C435.594116,440.332001 428.150208,447.545807 420.407288,454.904419 
z"/>
<path fill="#4552AE" opacity="1.000000" stroke="none" 
	d="
M390.963257,435.880005 
	C390.642181,445.409943 390.213898,454.938110 390.059204,464.470734 
	C390.006287,467.729858 390.639587,471.000122 390.998291,474.692902 
	C381.284882,480.412933 371.532593,485.705353 361.400665,490.582306 
	C361.014435,481.176361 361.015747,472.185883 360.996460,463.195435 
	C360.990570,460.450714 360.927917,457.706146 361.078430,454.661560 
	C371.164825,448.201080 381.064026,442.040527 390.963257,435.880005 
z"/>
<path fill="#504EB0" opacity="1.000000" stroke="none" 
	d="
M360.891296,454.961487 
	C360.927917,457.706146 360.990570,460.450714 360.996460,463.195435 
	C361.015747,472.185883 361.014435,481.176361 361.029175,490.643433 
	C351.943756,494.724457 342.850220,498.328918 333.376831,501.425232 
	C332.997040,489.667236 332.997070,478.417419 333.365479,467.086884 
	C342.786316,462.991272 351.838806,458.976379 360.891296,454.961487 
z"/>
<path fill="#584CB1" opacity="1.000000" stroke="none" 
	d="
M332.997131,467.167603 
	C332.997070,478.417419 332.997040,489.667236 332.995850,501.374817 
	C324.957123,503.898285 316.919556,505.964020 308.469666,508.076630 
	C307.704803,497.442963 307.352264,486.762451 307.345459,475.442474 
	C316.126495,472.257904 324.561798,469.712738 332.997131,467.167603 
z"/>
<path fill="#D128C1" opacity="1.000000" stroke="none" 
	d="
M36.834103,218.003769 
	C36.223045,215.917038 35.091423,213.833038 35.080517,211.743179 
	C34.955410,187.772873 35.031944,163.801575 34.949150,139.830902 
	C34.941395,137.585968 34.214153,135.343552 33.493137,132.757599 
	C38.200508,124.352493 43.235710,116.289764 48.819199,108.432724 
	C49.578598,110.604317 49.965229,112.569557 49.972660,114.536240 
	C50.025520,128.527756 49.890358,142.520966 50.069305,156.510391 
	C50.121933,160.624756 50.994541,164.728638 51.294838,169.137115 
	C51.030476,170.093887 51.132107,170.829163 50.870033,171.396393 
	C43.996269,186.273468 40.205132,202.074722 36.834103,218.003769 
z"/>
<path fill="#893DB7" opacity="1.000000" stroke="none" 
	d="
M211.529999,4.937776 
	C211.971115,15.564580 211.982849,26.239168 211.603821,37.452110 
	C200.848663,41.007812 190.484283,44.025166 179.881271,46.699013 
	C179.429245,44.063538 179.118607,41.775749 179.019699,39.478848 
	C178.642044,30.708406 178.332550,21.935028 177.997620,13.162747 
	C189.031952,10.437018 200.066269,7.711289 211.529999,4.937776 
z"/>
<path fill="#CA2AC0" opacity="1.000000" stroke="none" 
	d="
M51.491356,168.837326 
	C50.994541,164.728638 50.121933,160.624756 50.069305,156.510391 
	C49.890358,142.520966 50.025520,128.527756 49.972660,114.536240 
	C49.965229,112.569557 49.578598,110.604317 49.130806,108.292862 
	C52.542622,102.851448 56.086040,97.675636 59.879154,92.689774 
	C62.143593,89.713295 64.799606,87.034714 67.801697,84.386078 
	C68.215942,99.635788 68.063660,114.721611 68.051842,129.807556 
	C68.050217,131.884247 68.745621,133.961502 68.967636,136.360962 
	C63.041756,147.401382 57.266556,158.119354 51.491356,168.837326 
z"/>
<path fill="#C22CBE" opacity="1.000000" stroke="none" 
	d="
M69.118332,136.038498 
	C68.745621,133.961502 68.050217,131.884247 68.051842,129.807556 
	C68.063660,114.721611 68.215942,99.635788 68.109779,84.248657 
	C72.693275,79.036926 77.490784,74.126450 82.828217,69.426483 
	C83.579163,78.046219 83.720070,86.458000 84.023994,94.863884 
	C84.256210,101.286217 84.694763,107.701096 84.902084,114.429970 
	C79.547867,121.839935 74.333099,128.939224 69.118332,136.038498 
z"/>
<path fill="#B82FBD" opacity="1.000000" stroke="none" 
	d="
M85.041534,114.119286 
	C84.694763,107.701096 84.256210,101.286217 84.023994,94.863884 
	C83.720070,86.458000 83.579163,78.046219 83.131683,69.291107 
	C87.687737,64.706642 92.480255,60.468056 97.897720,56.326088 
	C99.005363,57.611534 99.895309,58.796406 99.906921,59.989826 
	C100.008728,70.451042 99.943420,80.913795 99.953674,91.376068 
	C99.955856,93.597252 100.064140,95.818344 99.980713,98.345833 
	C94.905777,103.807892 89.973656,108.963593 85.041534,114.119286 
z"/>
<path fill="#B131BC" opacity="1.000000" stroke="none" 
	d="
M100.123535,98.039474 
	C100.064140,95.818344 99.955856,93.597252 99.953674,91.376068 
	C99.943420,80.913795 100.008728,70.451042 99.906921,59.989826 
	C99.895309,58.796406 99.005363,57.611534 98.205185,56.185783 
	C103.701279,51.690742 109.514862,47.432617 115.654358,43.501114 
	C115.987862,54.727093 115.897079,65.628265 116.098366,76.524048 
	C116.132553,78.374832 117.420517,80.202446 117.979530,82.349297 
	C111.927727,87.785049 106.025635,92.912262 100.123535,98.039474 
z"/>
<path fill="#A335BA" opacity="1.000000" stroke="none" 
	d="
M130.957611,33.880272 
	C136.073975,31.011255 141.190323,28.142237 146.654266,25.682983 
	C147.013657,38.101437 147.025482,50.110123 146.890411,62.430023 
	C142.205658,65.508965 137.667816,68.276695 132.854233,70.767334 
	C132.053024,68.279884 131.112930,66.076927 131.073349,63.857922 
	C130.895172,53.867863 130.972443,43.873245 130.957611,33.880272 
z"/>
<path fill="#A834BB" opacity="1.000000" stroke="none" 
	d="
M130.597290,33.938736 
	C130.972443,43.873245 130.895172,53.867863 131.073349,63.857922 
	C131.112930,66.076927 132.053024,68.279884 132.689346,71.075912 
	C127.909882,75.121323 123.019554,78.581039 118.129242,82.040764 
	C117.420517,80.202446 116.132553,78.374832 116.098366,76.524048 
	C115.897079,65.628265 115.987862,54.727093 115.972397,43.350880 
	C120.722000,39.915081 125.479477,36.956139 130.597290,33.938736 
z"/>
<path fill="#9E37B9" opacity="1.000000" stroke="none" 
	d="
M147.037323,62.118813 
	C147.025482,50.110123 147.013657,38.101437 147.003662,25.635529 
	C151.722275,23.126839 156.439041,21.075369 161.762558,19.333469 
	C162.578934,23.764694 162.801743,27.885733 162.995255,32.008144 
	C163.336700,39.281979 163.660309,46.556652 163.668365,53.990948 
	C157.909348,56.806885 152.473343,59.462852 147.037323,62.118813 
z"/>
<path fill="#943AB8" opacity="1.000000" stroke="none" 
	d="
M163.991364,53.830978 
	C163.660309,46.556652 163.336700,39.281979 162.995255,32.008144 
	C162.801743,27.885733 162.578934,23.764694 162.132965,19.297766 
	C167.008835,16.987040 172.121063,15.021586 177.615448,13.109440 
	C178.332550,21.935028 178.642044,30.708406 179.019699,39.478848 
	C179.118607,41.775749 179.429245,44.063538 179.680725,47.018860 
	C174.476318,49.731796 169.233841,51.781387 163.991364,53.830978 
z"/>
<path fill="#000000" opacity="1.000000" stroke="none" 
	d="
M163.668365,53.990952 
	C169.233841,51.781387 174.476318,49.731796 179.919342,47.362362 
	C190.484283,44.025166 200.848663,41.007812 211.602844,37.910095 
	C218.379059,36.873997 224.765488,35.918270 231.573395,34.897049 
	C239.831848,34.486481 247.668808,34.141403 255.771332,33.459099 
	C263.013580,33.416714 269.990265,33.711563 277.427795,34.026428 
	C282.944641,34.852276 288.015747,35.574509 293.052765,36.485493 
	C299.097107,37.578667 305.112366,38.832722 311.551147,40.060585 
	C323.067871,43.966805 334.173706,47.829556 345.635803,51.762314 
	C356.931946,57.842854 367.871765,63.853382 379.189575,69.860672 
	C387.893738,76.516396 396.347717,83.023567 404.499786,89.889221 
	C409.685150,94.256287 414.422272,99.155556 419.661346,103.968460 
	C432.874359,118.706696 444.487030,134.224442 454.002869,151.679367 
	C463.806641,170.356995 471.374359,189.538467 475.317596,209.913040 
	C477.555237,221.474960 479.486267,233.268082 479.749451,244.997620 
	C480.093384,260.324493 479.588684,275.808960 477.685028,291.004608 
	C476.111908,303.562073 471.977051,315.798584 468.927917,328.570312 
	C461.785583,347.667847 452.983612,365.510468 441.942139,382.607605 
	C438.207245,387.546661 434.606537,392.193695 430.839813,396.702057 
	C426.723633,401.628693 422.453918,406.427032 418.107483,411.578369 
	C409.063019,419.674896 400.162292,427.474365 391.112396,435.576904 
	C381.064026,442.040527 371.164825,448.201080 361.078430,454.661560 
	C351.838806,458.976379 342.786316,462.991272 333.365479,467.086884 
	C324.561798,469.712738 316.126495,472.257904 307.345093,474.984192 
	C297.958313,476.453522 288.917603,477.741699 279.437500,479.096741 
	C276.252289,479.442657 273.510681,479.898224 270.759796,479.963867 
	C265.104401,480.098785 259.444061,480.025085 253.391281,480.102509 
	C245.290863,479.788361 237.584900,479.408936 229.437378,479.097900 
	C223.598679,478.111847 218.195419,477.087433 212.807205,475.989197 
	C210.441544,475.506989 208.106522,474.874420 205.377258,474.237610 
	C197.918091,472.127045 190.839264,470.088989 183.377029,468.108765 
	C176.612503,465.449280 170.231415,462.731903 163.485352,459.984009 
	C154.973892,455.380920 146.827408,450.808411 138.337036,446.200806 
	C132.243256,442.110962 126.493393,438.056213 120.392624,433.942169 
	C114.914650,429.309723 109.787582,424.736542 104.351387,420.023621 
	C98.910980,414.329620 93.779709,408.775330 88.344025,403.059265 
	C83.268944,396.690033 78.498260,390.482666 73.422714,384.119659 
	C67.307304,373.725311 61.496761,363.486603 55.363491,353.071655 
	C48.080990,337.161713 42.166008,321.075409 38.639847,304.186462 
	C38.307690,302.595551 38.078537,300.983154 37.461956,299.172791 
	C34.198280,280.747253 33.260181,262.393188 34.100563,243.995804 
	C34.484856,235.583008 35.979385,227.220932 36.902245,218.419800 
	C40.205132,202.074722 43.996269,186.273468 50.870033,171.396393 
	C51.132107,170.829163 51.030476,170.093887 51.294838,169.137115 
	C57.266556,158.119354 63.041756,147.401382 68.967644,136.360962 
	C74.333099,128.939224 79.547867,121.839935 84.902084,114.429970 
	C89.973656,108.963593 94.905777,103.807892 99.980713,98.345833 
	C106.025635,92.912262 111.927727,87.785049 117.979523,82.349297 
	C123.019554,78.581039 127.909882,75.121323 132.965088,71.353012 
	C137.667816,68.276695 142.205658,65.508965 146.890411,62.430023 
	C152.473343,59.462852 157.909348,56.806885 163.668365,53.990952 
M246.925751,310.969849 
	C252.615662,310.924133 258.305573,310.878387 264.924347,310.967194 
	C271.281250,310.921692 277.638153,310.876221 284.924316,310.966217 
	C293.947662,310.921021 302.971039,310.875793 312.924164,310.964203 
	C320.947327,310.919983 328.970490,310.875732 337.913269,310.964081 
	C340.905121,310.975281 343.907074,311.149536 346.886871,310.965729 
	C354.480804,310.497314 361.405640,305.354584 362.879486,295.773224 
	C363.874084,289.307495 358.533905,280.891663 351.682312,279.201019 
	C346.987122,278.042450 341.903534,278.457764 336.064819,278.041992 
	C327.707764,278.083954 319.350708,278.125946 310.064911,278.039886 
	C301.374695,278.082092 292.684448,278.124329 283.065704,278.038788 
	C276.376038,278.081482 269.686371,278.124146 262.069855,278.036957 
	C256.712830,278.079834 251.355804,278.122681 245.071625,278.034912 
	C239.713226,278.079193 234.354828,278.123474 228.067886,278.037231 
	C221.376999,278.080597 214.686127,278.123993 207.066620,278.036774 
	C198.709305,278.079712 190.351974,278.122681 181.067291,278.034821 
	C176.751862,278.022949 172.431442,277.872528 168.122025,278.027618 
	C158.775040,278.364136 152.661270,283.543396 151.055237,293.472656 
	C149.969757,300.183411 155.482956,308.329956 163.355423,309.918854 
	C169.704514,311.200317 176.433548,310.599365 183.922791,310.973846 
	C191.613876,310.927002 199.304977,310.880157 207.924683,310.971771 
	C214.948578,310.926056 221.972473,310.880341 229.923233,310.971436 
	C235.281540,310.926178 240.639847,310.880920 246.925751,310.969849 
M228.068405,128.037262 
	C222.043457,128.081116 216.018494,128.124969 209.065170,128.037994 
	C201.041016,128.081818 193.016846,128.125641 184.064682,128.037979 
	C178.420319,128.025238 172.772842,127.888245 167.132294,128.028687 
	C158.536469,128.242737 151.034958,135.978439 150.994690,144.460617 
	C150.954819,152.856812 158.533554,160.765274 167.073669,160.962875 
	C173.042511,161.100952 179.019470,160.888077 185.921829,160.972672 
	C193.612625,160.925735 201.303436,160.878784 209.923111,160.970642 
	C216.614014,160.925079 223.304932,160.879532 230.922775,160.970917 
	C236.281204,160.925568 241.639648,160.880219 247.926865,160.969070 
	C254.616333,160.922760 261.305786,160.876450 268.924408,160.965164 
	C275.946472,160.919708 282.968506,160.874252 290.920349,160.964462 
	C300.944031,160.920273 310.967743,160.876083 321.921112,160.967850 
	C330.233429,160.977829 338.559631,161.293854 346.854370,160.916901 
	C356.299316,160.487686 362.913879,153.268494 362.756775,144.813995 
	C362.570435,134.786240 355.966064,128.566681 346.913544,128.104111 
	C338.628967,127.680786 330.300720,128.112320 321.062805,128.043335 
	C311.038666,128.085922 301.014557,128.128510 290.062653,128.042084 
	C282.373199,128.084412 274.683746,128.126724 266.066681,128.038666 
	C260.043854,128.081284 254.020996,128.123917 247.069824,128.035660 
	C241.045364,128.079681 235.020889,128.123703 228.068405,128.037262 
M260.926270,235.969009 
	C266.950104,235.923782 272.973938,235.878555 279.926727,235.968262 
	C287.951019,235.923950 295.975311,235.879639 304.928558,235.968628 
	C312.951935,235.923889 320.975342,235.879135 329.927765,235.966354 
	C335.410553,235.977280 340.894379,236.060608 346.375885,235.981552 
	C353.914337,235.872849 361.379395,230.604950 362.883514,220.798996 
	C363.917877,214.055664 358.586578,205.612396 351.163544,204.194031 
	C344.293884,202.881424 337.067810,203.434006 329.069061,203.037750 
	C320.379211,203.079865 311.689392,203.121979 302.069672,203.036942 
	C294.379059,203.079346 286.688477,203.121735 278.068787,203.036880 
	C271.712250,203.079681 265.355743,203.122482 258.070221,203.035416 
	C251.377563,203.079651 244.684891,203.123886 237.063736,203.040894 
	C230.038879,203.084595 223.014008,203.128296 215.061340,203.040955 
	C202.040909,203.081009 189.020493,203.121063 175.085724,203.031738 
	C172.431290,203.021088 169.774429,202.932693 167.122879,203.015091 
	C160.518173,203.220291 153.633011,208.368759 152.041992,214.206421 
	C149.923233,221.980392 152.336304,228.673340 158.421478,232.984924 
	C163.566437,236.630341 169.265930,236.123123 175.929871,235.978256 
	C188.950058,235.928253 201.970230,235.878265 215.920151,235.967896 
	C223.277115,235.922989 230.634094,235.878067 238.920486,235.972244 
	C245.946320,235.926407 252.972153,235.880554 260.926270,235.969009 
M230.925552,385.970947 
	C237.617310,385.925751 244.309082,385.880554 251.929199,385.971710 
	C259.286621,385.926422 266.644012,385.881104 274.929993,385.970093 
	C282.621033,385.925964 290.312073,385.881866 298.931732,385.970428 
	C307.621490,385.925720 316.311218,385.881012 325.929962,385.968231 
	C332.747772,385.978516 339.566650,386.068909 346.383118,385.977753 
	C354.025391,385.875549 361.430023,380.496185 362.882202,370.770050 
	C363.897369,363.971008 358.622131,355.415161 351.174927,354.227722 
	C342.611420,352.862213 333.739258,353.432587 324.070831,353.035889 
	C315.048248,353.077850 306.025665,353.119843 296.072449,353.035187 
	C288.715729,353.077515 281.359039,353.119843 273.071960,353.034943 
	C266.047455,353.078278 259.022980,353.121643 251.068909,353.037262 
	C244.044937,353.080963 237.020981,353.124664 229.068237,353.038055 
	C222.376892,353.081390 215.685562,353.124725 208.065735,353.037415 
	C199.708496,353.080597 191.351257,353.123810 182.066223,353.035767 
	C177.086472,353.023743 172.103500,352.892609 167.127670,353.026184 
	C158.533524,353.256897 151.033234,360.981537 150.994659,369.462280 
	C150.956467,377.858490 158.533356,385.757935 167.072372,385.963989 
	C172.708420,386.100067 178.352844,385.888611 184.922424,385.973206 
	C192.613007,385.926331 200.303604,385.879425 208.923172,385.971191 
	C215.947769,385.925446 222.972366,385.879700 230.925552,385.970947 
z"/>
<path fill="#893DB7" opacity="1.000000" stroke="none" 
	d="
M176.000061,203.161133 
	C189.020493,203.121063 202.040909,203.081009 215.526871,203.564026 
	C215.658401,214.667496 215.324417,225.247879 214.990417,235.828262 
	C201.970230,235.878265 188.950058,235.928253 175.558121,235.511414 
	C175.457596,224.416763 175.728836,213.788956 176.000061,203.161133 
z"/>
<path fill="#504EB0" opacity="1.000000" stroke="none" 
	d="
M321.991699,128.167145 
	C330.300720,128.112320 338.628967,127.680786 346.913544,128.104111 
	C355.966064,128.566681 362.570435,134.786240 362.756775,144.813995 
	C362.913879,153.268494 356.299316,160.487686 346.854370,160.916901 
	C338.559631,161.293854 330.233429,160.977829 321.460754,160.478546 
	C321.330841,149.381866 321.661285,138.774506 321.991699,128.167145 
z"/>
<path fill="#504EB0" opacity="1.000000" stroke="none" 
	d="
M325.001160,353.162140 
	C333.739258,353.432587 342.611420,352.862213 351.174927,354.227722 
	C358.622131,355.415161 363.897369,363.971008 362.882202,370.770050 
	C361.430023,380.496185 354.025391,385.875549 346.383118,385.977753 
	C339.566650,386.068909 332.747772,385.978516 325.465637,385.444275 
	C325.001251,374.334290 325.001190,363.748199 325.001160,353.162140 
z"/>
<path fill="#6049B2" opacity="1.000000" stroke="none" 
	d="
M321.527283,128.105240 
	C321.661285,138.774506 321.330841,149.381866 320.995911,160.410553 
	C310.967743,160.876083 300.944031,160.920273 290.456940,160.439117 
	C290.325836,149.332870 290.658112,138.751999 290.990417,128.171112 
	C301.014557,128.128510 311.038666,128.085922 321.527283,128.105240 
z"/>
<path fill="#943AB8" opacity="1.000000" stroke="none" 
	d="
M184.992813,160.831970 
	C179.019470,160.888077 173.042511,161.100952 167.073669,160.962875 
	C158.533554,160.765274 150.954819,152.856812 150.994690,144.460617 
	C151.034958,135.978439 158.536469,128.242737 167.132294,128.028687 
	C172.772842,127.888245 178.420319,128.025238 184.529999,128.561447 
	C184.994492,139.667267 184.993652,150.249619 184.992813,160.831970 
z"/>
<path fill="#504EB0" opacity="1.000000" stroke="none" 
	d="
M329.998718,203.165192 
	C337.067810,203.434006 344.293884,202.881424 351.163544,204.194031 
	C358.586578,205.612396 363.917877,214.055664 362.883514,220.798996 
	C361.379395,230.604950 353.914337,235.872849 346.375885,235.981552 
	C340.894379,236.060608 335.410553,235.977280 329.463654,235.442520 
	C329.332581,224.334183 329.665649,213.749695 329.998718,203.165192 
z"/>
<path fill="#943AB8" opacity="1.000000" stroke="none" 
	d="
M183.993530,385.832733 
	C178.352844,385.888611 172.708420,386.100067 167.072372,385.963989 
	C158.533356,385.757935 150.956467,377.858490 150.994659,369.462280 
	C151.033234,360.981537 158.533524,353.256897 167.127670,353.026184 
	C172.103500,352.892609 177.086472,353.023743 182.567764,353.510040 
	C183.377380,364.600464 183.685455,375.216583 183.993530,385.832733 
z"/>
<path fill="#6049B2" opacity="1.000000" stroke="none" 
	d="
M311.994385,310.830597 
	C302.971039,310.875793 293.947662,310.921021 284.460510,310.440796 
	C283.995850,299.332458 283.995056,288.749512 283.994232,278.166565 
	C292.684448,278.124329 301.374695,278.082092 310.566895,278.512421 
	C311.377411,289.600159 311.685913,300.215393 311.994385,310.830597 
z"/>
<path fill="#943AB8" opacity="1.000000" stroke="none" 
	d="
M182.994019,310.833527 
	C176.433548,310.599365 169.704514,311.200317 163.355423,309.918854 
	C155.482956,308.329956 149.969757,300.183411 151.055237,293.472656 
	C152.661270,283.543396 158.775040,278.364136 168.122025,278.027618 
	C172.431442,277.872528 176.751862,278.022949 181.532318,278.558228 
	C182.329559,289.665588 182.661789,300.249542 182.994019,310.833527 
z"/>
<path fill="#584CB1" opacity="1.000000" stroke="none" 
	d="
M324.536011,353.098999 
	C325.001190,363.748199 325.001251,374.334290 325.001160,385.378326 
	C316.311218,385.881012 307.621490,385.925720 298.467407,385.445984 
	C297.669739,374.334991 297.336395,363.748413 297.003082,353.161804 
	C306.025665,353.119843 315.048248,353.077850 324.536011,353.098999 
z"/>
<path fill="#584CB1" opacity="1.000000" stroke="none" 
	d="
M329.533875,203.101471 
	C329.665649,213.749695 329.332581,224.334183 328.999146,235.376526 
	C320.975342,235.879135 312.951935,235.923889 304.428162,235.493179 
	C303.618378,224.399857 303.308960,213.781967 302.999542,203.164093 
	C311.689392,203.121979 320.379211,203.079865 329.533875,203.101471 
z"/>
<path fill="#893DB7" opacity="1.000000" stroke="none" 
	d="
M183.458405,310.903687 
	C182.661789,300.249542 182.329559,289.665588 181.996002,278.623596 
	C190.351974,278.122681 198.709305,278.079712 207.531937,278.559937 
	C207.663513,289.666473 207.329788,300.249908 206.996063,310.833313 
	C199.304977,310.880157 191.613876,310.927002 183.458405,310.903687 
z"/>
<path fill="#584CB1" opacity="1.000000" stroke="none" 
	d="
M312.459290,310.897400 
	C311.685913,300.215393 311.377411,289.600159 311.031281,278.576416 
	C319.350708,278.125946 327.707764,278.083954 336.530273,278.563354 
	C336.995056,289.666962 336.994354,300.249237 336.993652,310.831512 
	C328.970490,310.875732 320.947327,310.919983 312.459290,310.897400 
z"/>
<path fill="#893DB7" opacity="1.000000" stroke="none" 
	d="
M185.457321,160.902313 
	C184.993652,150.249619 184.994492,139.667267 184.994019,128.627182 
	C193.016846,128.125641 201.041016,128.081818 209.530548,128.561157 
	C209.662033,139.666824 209.328125,150.249329 208.994232,160.831833 
	C201.303436,160.878784 193.612625,160.925735 185.457321,160.902313 
z"/>
<path fill="#893DB7" opacity="1.000000" stroke="none" 
	d="
M184.457977,385.902954 
	C183.685455,375.216583 183.377380,364.600464 183.031662,353.575684 
	C191.351257,353.123810 199.708496,353.080597 208.528229,353.524139 
	C208.658539,364.618073 208.326370,375.225311 207.994186,385.832520 
	C200.303604,385.879425 192.613007,385.926331 184.457977,385.902954 
z"/>
<path fill="#6049B2" opacity="1.000000" stroke="none" 
	d="
M302.534607,203.100525 
	C303.308960,213.781967 303.618378,224.399857 303.963684,235.426514 
	C295.975311,235.879639 287.951019,235.923950 279.462952,235.442978 
	C278.998718,224.333176 278.998291,213.748642 278.997864,203.164124 
	C286.688477,203.121735 294.379059,203.079346 302.534607,203.100525 
z"/>
<path fill="#6049B2" opacity="1.000000" stroke="none" 
	d="
M296.537781,353.098511 
	C297.336395,363.748413 297.669739,374.334991 298.003082,385.379639 
	C290.312073,385.881866 282.621033,385.925964 274.466034,385.444977 
	C274.002167,374.333984 274.002228,363.748077 274.002319,353.162170 
	C281.359039,353.119843 288.715729,353.077515 296.537781,353.098511 
z"/>
<path fill="#6A46B4" opacity="1.000000" stroke="none" 
	d="
M290.526550,128.106598 
	C290.658112,138.751999 290.325836,149.332870 289.992065,160.371277 
	C282.968506,160.874252 275.946472,160.919708 268.457581,160.476440 
	C267.658600,149.381500 267.326447,138.775269 266.994293,128.169052 
	C274.683746,128.126724 282.373199,128.084412 290.526550,128.106598 
z"/>
<path fill="#504EB0" opacity="1.000000" stroke="none" 
	d="
M337.453461,310.897797 
	C336.994354,300.249237 336.995056,289.666962 336.994690,278.627075 
	C341.903534,278.457764 346.987122,278.042450 351.682312,279.201019 
	C358.533905,280.891663 363.874084,289.307495 362.879486,295.773224 
	C361.405640,305.354584 354.480804,310.497314 346.886871,310.965729 
	C343.907074,311.149536 340.905121,310.975281 337.453461,310.897797 
z"/>
<path fill="#6A46B4" opacity="1.000000" stroke="none" 
	d="
M273.537140,353.098572 
	C274.002228,363.748077 274.002167,374.333984 274.001770,385.377838 
	C266.644012,385.881104 259.286621,385.926422 251.557190,385.506683 
	C251.456284,374.416107 251.727386,363.790558 251.998474,353.165009 
	C259.022980,353.121643 266.047455,353.078278 273.537140,353.098572 
z"/>
<path fill="#7F40B6" opacity="1.000000" stroke="none" 
	d="
M215.455292,235.898071 
	C215.324417,225.247879 215.658401,214.667496 215.990784,203.629562 
	C223.014008,203.128296 230.038879,203.084595 237.529572,203.562271 
	C237.993958,214.666824 237.992508,225.249985 237.991058,235.833160 
	C230.634094,235.878067 223.277115,235.922989 215.455292,235.898071 
z"/>
<path fill="#7643B5" opacity="1.000000" stroke="none" 
	d="
M251.533691,353.101135 
	C251.727386,363.790558 251.456284,374.416107 251.093018,385.438507 
	C244.309082,385.880554 237.617310,385.925751 230.461975,385.444550 
	C229.997925,374.334900 229.997467,363.751617 229.997009,353.168365 
	C237.020981,353.124664 244.044937,353.080963 251.533691,353.101135 
z"/>
<path fill="#7144B4" opacity="1.000000" stroke="none" 
	d="
M238.455780,235.902710 
	C237.992508,225.249985 237.993958,214.666824 237.993820,203.625885 
	C244.684891,203.123886 251.377563,203.079651 258.627014,203.497177 
	C259.455231,214.584198 259.726593,225.209457 259.997986,235.834717 
	C252.972153,235.880554 245.946320,235.926407 238.455780,235.902710 
z"/>
<path fill="#7F40B6" opacity="1.000000" stroke="none" 
	d="
M229.532623,353.103210 
	C229.997467,363.751617 229.997925,374.334900 229.997681,385.376068 
	C222.972366,385.879700 215.947769,385.925446 208.458679,385.901855 
	C208.326370,375.225311 208.658539,364.618073 208.992462,353.589478 
	C215.685562,353.124725 222.376892,353.081390 229.532623,353.103210 
z"/>
<path fill="#943AB8" opacity="1.000000" stroke="none" 
	d="
M175.542908,203.096436 
	C175.728836,213.788956 175.457596,224.416763 175.094177,235.441711 
	C169.265930,236.123123 163.566437,236.630341 158.421478,232.984924 
	C152.336304,228.673340 149.923233,221.980392 152.041992,214.206421 
	C153.633011,208.368759 160.518173,203.220291 167.122879,203.015091 
	C169.774429,202.932693 172.431290,203.021088 175.542908,203.096436 
z"/>
<path fill="#7F40B6" opacity="1.000000" stroke="none" 
	d="
M207.460358,310.902527 
	C207.329788,300.249908 207.663513,289.666473 207.996246,278.625214 
	C214.686127,278.123993 221.376999,278.080597 228.533020,278.560272 
	C228.997559,289.667084 228.996964,300.250854 228.996368,310.834595 
	C221.972473,310.880341 214.948578,310.926056 207.460358,310.902527 
z"/>
<path fill="#6A46B4" opacity="1.000000" stroke="none" 
	d="
M283.529968,278.102661 
	C283.995056,288.749512 283.995850,299.332458 283.995850,310.373047 
	C277.638153,310.876221 271.281250,310.921692 264.368744,310.503082 
	C263.540985,299.414917 263.268860,288.790863 262.996704,278.166809 
	C269.686371,278.124146 276.376038,278.081482 283.529968,278.102661 
z"/>
<path fill="#7144B4" opacity="1.000000" stroke="none" 
	d="
M266.530487,128.103851 
	C267.326447,138.775269 267.658600,149.381500 267.993011,160.408936 
	C261.305786,160.876450 254.616333,160.922760 247.462891,160.444016 
	C247.332001,149.334824 247.665070,138.750671 247.998154,128.166534 
	C254.020996,128.123917 260.043854,128.081284 266.530487,128.103851 
z"/>
<path fill="#7F40B6" opacity="1.000000" stroke="none" 
	d="
M209.458664,160.901245 
	C209.328125,150.249329 209.662033,139.666824 209.994751,128.626572 
	C216.018494,128.124969 222.043457,128.081116 228.533295,128.560303 
	C229.330734,139.666870 229.663284,150.250427 229.995850,160.833984 
	C223.304932,160.879532 216.614014,160.925079 209.458664,160.901245 
z"/>
<path fill="#6A46B4" opacity="1.000000" stroke="none" 
	d="
M260.462128,235.901855 
	C259.726593,225.209457 259.455231,214.584198 259.091522,203.562119 
	C265.355743,203.122482 271.712250,203.079681 278.533325,203.100494 
	C278.998291,213.748642 278.998718,224.333176 278.998474,235.375519 
	C272.973938,235.878555 266.950104,235.923782 260.462128,235.901855 
z"/>
<path fill="#7643B5" opacity="1.000000" stroke="none" 
	d="
M230.459320,160.902435 
	C229.663284,150.250427 229.330734,139.666870 228.997314,128.625519 
	C235.020889,128.123703 241.045364,128.079681 247.533997,128.101105 
	C247.665070,138.750671 247.332001,149.334824 246.998505,160.376907 
	C241.639648,160.880219 236.281204,160.925568 230.459320,160.902435 
z"/>
<path fill="#7144B4" opacity="1.000000" stroke="none" 
	d="
M262.533264,278.101868 
	C263.268860,288.790863 263.540985,299.414917 263.904297,310.435822 
	C258.305573,310.878387 252.615662,310.924133 246.462463,310.444763 
	C245.999054,299.334961 245.998917,288.750244 245.998779,278.165527 
	C251.355804,278.122681 256.712830,278.079834 262.533264,278.101868 
z"/>
<path fill="#7643B5" opacity="1.000000" stroke="none" 
	d="
M245.535202,278.100220 
	C245.998917,288.750244 245.999054,299.334961 245.998672,310.377686 
	C240.639847,310.880920 235.281540,310.926178 229.459808,310.903015 
	C228.996964,300.250854 228.997559,289.667084 228.997299,278.625549 
	C234.354828,278.123474 239.713226,278.079193 245.535202,278.100220 
z"/>
</svg>